# xmcd CD database file
#
# Track frame offsets:
#	150
#	29354
#	70067
#	85255
#	102958
#	123931
#	144944
#	169092
#	185386
#	215716
#	245433
#
# Disc length: 3649 seconds
#
# Revision: 0
# Processed by: cddbd v1.5.2PL0 Copyright (c) Steve Scherf et al.
# Submitted via: CDex 1.51
#
DISCID=940e3f0b
DTITLE=Full Spectrum Jazz Big Band - Pursuits
DYEAR=2006
DGENRE=Jazz
TTITLE0=Au Privave
TTITLE1=No Persigas A Las Mujeres (Don't Go Chasing The Women)
TTITLE2=Almost Like Being In Love
TTITLE3=Raggy Waltz
TTITLE4=Suenos (Dreaming)
TTITLE5=The Way You Look Tonight
TTITLE6=This Is Not Here
TTITLE7=Somewhere Out There
TTITLE8=So Many Stars
TTITLE9=Willowcrest
TTITLE10=Night In Tunisia
EXTD=YEAR: 2006
EXTT0=
EXTT1=
EXTT2=
EXTT3=
EXTT4=
EXTT5=
EXTT6=
EXTT7=
EXTT8=
EXTT9=
EXTT10=
PLAYORDER=
